<?xml version="1.0" encoding="utf-8"?>
<!-- Generator: Adobe Illustrator 16.0.3, SVG Export Plug-In . SVG Version: 6.00 Build 0)  -->
<!DOCTYPE svg PUBLIC "-//W3C//DTD SVG 1.1//EN" "http://www.w3.org/Graphics/SVG/1.1/DTD/svg11.dtd">
<svg version="1.1" id="Layer_1" xmlns="http://www.w3.org/2000/svg" xmlns:xlink="http://www.w3.org/1999/xlink" x="0px" y="0px"
	 width="117.337px" height="63.87px" viewBox="0 0 117.337 63.87" enable-background="new 0 0 117.337 63.87" xml:space="preserve">
<rect x="-2.663" y="-0.965" fill-rule="evenodd" clip-rule="evenodd" fill="#CCCCCC" width="122.663" height="65.799"/>
<path fill="#1A1A1A" d="M52.33,11.2c-0.712,0-1.265,0.299-1.621,0.862v-0.787h-1.893v5.098h1.893v-2.521
	c0-0.581,0.319-0.984,0.834-0.994c0.441,0,0.731,0.319,0.731,0.825v2.689h1.893V13.14C54.167,11.959,53.417,11.2,52.33,11.2
	 M45.78,11.275v5.098h1.893v-5.098H45.78z M46.736,9.035c-0.478,0-0.806,0.337-0.806,0.815c0,0.459,0.328,0.796,0.806,0.796
	s0.806-0.337,0.806-0.796C47.542,9.373,47.214,9.035,46.736,9.035z M42.06,15.22c-0.365,0-0.571-0.188-0.571-0.506
	c0-0.319,0.196-0.478,0.571-0.478h0.862v0.459C42.781,15.014,42.444,15.22,42.06,15.22z M42.491,11.2
	c-0.796,0-1.621,0.187-2.455,0.524l0.469,1.256c0.562-0.244,1.134-0.365,1.537-0.365c0.581,0,0.881,0.253,0.881,0.674v0.019h-1.247
	c-1.284,0.019-1.968,0.562-1.968,1.546c0,0.956,0.637,1.603,1.725,1.603c0.674,0,1.181-0.234,1.49-0.646v0.562h1.855v-3.308
	C44.777,11.884,43.924,11.2,42.491,11.2z M38.667,12.999l0.628-1.19c-0.693-0.402-1.471-0.618-2.24-0.618
	c-1.284,0-2.174,0.637-2.174,1.706c0,1.743,2.605,1.462,2.605,2.043c0,0.159-0.169,0.234-0.421,0.234
	c-0.563,0-1.209-0.215-1.846-0.627l-0.582,1.19c0.666,0.478,1.5,0.722,2.399,0.722c1.331,0,2.239-0.637,2.239-1.687
	c0-1.743-2.661-1.49-2.661-2.062c0-0.159,0.15-0.243,0.384-0.243C37.402,12.465,37.974,12.643,38.667,12.999z M32.455,13.355h-1.603
	c0.094-0.515,0.384-0.862,0.834-0.862C32.146,12.493,32.464,12.849,32.455,13.355z M31.667,11.209c-1.612,0-2.689,1.04-2.689,2.633
	c0,1.565,1.04,2.596,2.746,2.596c0.965,0,1.734-0.328,2.268-0.918l-0.984-0.965c-0.337,0.31-0.722,0.487-1.125,0.487
	c-0.487,0-0.843-0.272-0.993-0.759h3.43C34.432,12.409,33.458,11.209,31.667,11.209z M25.37,14.986
	c-0.562,0-0.928-0.459-0.928-1.144c0-0.674,0.366-1.134,0.928-1.134c0.553,0,0.918,0.459,0.918,1.134
	C26.289,14.527,25.923,14.986,25.37,14.986z M26.289,9.419v2.446c-0.347-0.422-0.843-0.656-1.443-0.656
	c-1.396,0-2.314,1.021-2.314,2.586c0,1.603,0.937,2.643,2.361,2.643c0.581,0,1.059-0.234,1.396-0.647v0.581h1.893V9.419H26.289z"/>
<path fill="#1A1A1A" d="M49.496,21.196l0.628-1.19c-0.694-0.403-1.472-0.618-2.24-0.618c-1.284,0-2.174,0.637-2.174,1.706
	c0,1.743,2.605,1.461,2.605,2.043c0,0.159-0.168,0.234-0.421,0.234c-0.563,0-1.209-0.215-1.846-0.628l-0.581,1.19
	c0.665,0.478,1.5,0.721,2.399,0.721c1.331,0,2.24-0.637,2.24-1.687c0-1.743-2.661-1.49-2.661-2.062c0-0.159,0.15-0.244,0.384-0.244
	C48.23,20.662,48.802,20.839,49.496,21.196 M42.871,19.472v5.098h1.893v-5.098H42.871z M43.826,17.232
	c-0.478,0-0.806,0.337-0.806,0.815c0,0.459,0.328,0.797,0.806,0.797c0.478,0,0.806-0.337,0.806-0.797
	C44.632,17.569,44.304,17.232,43.826,17.232z M41.812,23.023c-0.225,0.084-0.431,0.15-0.581,0.15c-0.262,0-0.431-0.159-0.431-0.487
	v-1.743h1.255v-1.209H40.8v-1.415h-1.884v1.415h-0.703v1.209h0.703v2.033c0,1.059,0.731,1.687,1.818,1.677
	c0.516,0,1.059-0.122,1.415-0.328L41.812,23.023z M34.942,23.417c-0.365,0-0.571-0.188-0.571-0.506c0-0.319,0.196-0.478,0.571-0.478
	h0.862v0.459C35.664,23.21,35.327,23.417,34.942,23.417z M35.374,19.396c-0.797,0-1.622,0.187-2.456,0.525l0.469,1.255
	c0.562-0.244,1.134-0.365,1.537-0.365c0.581,0,0.881,0.253,0.881,0.674v0.019h-1.247c-1.284,0.019-1.968,0.562-1.968,1.546
	c0,0.956,0.637,1.602,1.725,1.602c0.674,0,1.181-0.234,1.49-0.646v0.563h1.855v-3.308C37.66,20.081,36.808,19.396,35.374,19.396z
	 M30.819,20.279v-0.806h-1.893v5.096h1.893v-2.437c0-0.739,0.628-1.151,1.603-1.029v-1.706
	C31.729,19.398,31.175,19.717,30.819,20.279z M25.065,22.92c-0.515,0-0.862-0.421-0.862-1.049c0-0.637,0.347-1.068,0.862-1.068
	c0.525,0,0.872,0.421,0.872,1.068C25.937,22.499,25.59,22.92,25.065,22.92z M25.937,19.472v0.553
	c-0.328-0.394-0.806-0.619-1.405-0.619c-1.228,0-2.099,0.956-2.099,2.408c0,1.49,0.899,2.465,2.136,2.465
	c0.581,0,1.04-0.215,1.368-0.609v0.516c0,0.497-0.403,0.815-1.087,0.815c-0.525,0-1.115-0.168-1.565-0.468l-0.628,1.274
	c0.553,0.366,1.406,0.666,2.352,0.666c1.668,0,2.802-0.909,2.802-2.343v-4.657H25.937z"/>
<path fill-rule="evenodd" clip-rule="evenodd" fill="#1A1A1A" d="M42.836,26.007c-0.083,0.044-0.116,0.147-0.072,0.23
	c0.043,0.084,0.147,0.116,0.23,0.072c0.083-0.044,0.116-0.147,0.072-0.231C43.023,25.996,42.919,25.963,42.836,26.007 M41.84,24.727
	l0.436,0.831l0.06,0.114c0.044,0.011,0.097,0.024,0.131,0.034c0.068,0.019,0.108,0.108,0.108,0.108l0.119,0.228
	c0.023-0.043,0.059-0.08,0.105-0.104c0.122-0.064,0.273-0.017,0.337,0.105c0.064,0.123,0.017,0.274-0.105,0.338
	c-0.123,0.064-0.274,0.017-0.338-0.106c-0.075-0.128-0.168-0.288-0.242-0.408l-0.217-0.065c-0.12-0.194-0.146-0.233-0.285-0.485
	C41.77,25.049,41.84,24.727,41.84,24.727z"/>
<path fill-rule="evenodd" clip-rule="evenodd" fill="#1A1A1A" d="M41.939,26.007c0.083,0.044,0.116,0.147,0.072,0.23
	c-0.044,0.084-0.147,0.116-0.231,0.072c-0.083-0.044-0.116-0.147-0.072-0.231C41.752,25.996,41.855,25.963,41.939,26.007
	 M42.935,24.727l-0.436,0.831l-0.06,0.114c-0.044,0.011-0.097,0.024-0.131,0.034c-0.068,0.019-0.108,0.108-0.108,0.108l-0.119,0.228
	c-0.022-0.043-0.059-0.08-0.105-0.104c-0.122-0.064-0.273-0.017-0.337,0.105c-0.064,0.123-0.017,0.274,0.105,0.338
	c0.123,0.064,0.273,0.017,0.338-0.106c0.075-0.128,0.169-0.288,0.242-0.408l0.217-0.065c0.12-0.194,0.146-0.233,0.285-0.485
	C43.005,25.049,42.935,24.727,42.935,24.727z"/>
<path fill="#1A1A1A" d="M40.397,25.651v-0.155h0.505v0.155H40.397z M39.724,25.651v-0.155h0.505v0.155H39.724z M39.051,25.651
	v-0.155h0.505v0.155H39.051z M38.377,25.651v-0.155h0.505v0.155H38.377z M37.833,25.377h0.168v0.119h0.208v0.155h-0.376V25.377z
	 M37.833,24.758h0.168v0.464h-0.168V24.758z M37.833,24.139h0.168v0.464h-0.168V24.139z M37.833,23.52h0.168v0.464h-0.168V23.52z
	 M37.833,22.9h0.168v0.464h-0.168V22.9z M37.833,22.281h0.168v0.464h-0.168V22.281z M37.833,21.661h0.168v0.465h-0.168V21.661z
	 M37.833,21.042h0.168v0.464h-0.168V21.042z M37.833,20.422h0.168v0.465h-0.168V20.422z M37.833,19.803h0.168v0.464h-0.168V19.803z
	 M37.833,19.184h0.168v0.465h-0.168V19.184z M37.833,18.564h0.168v0.464h-0.168V18.564z M37.833,17.945h0.168v0.465h-0.168V17.945z
	 M38.093,17.411v0.155h-0.092v0.225h-0.168v-0.379H38.093z M38.767,17.411v0.155h-0.505v-0.155H38.767z M39.44,17.411v0.155h-0.505
	v-0.155H39.44z M40.113,17.411v0.155h-0.504v-0.155H40.113z M40.786,17.411v0.155h-0.505v-0.155H40.786z M41.459,17.411v0.155
	h-0.505v-0.155H41.459z M42.133,17.411v0.155h-0.505v-0.155H42.133z M42.468,17.876H42.3v-0.388h0.001v-0.078h0.167V17.876z
	 M42.468,18.495H42.3v-0.464h0.168V18.495z M42.468,19.115H42.3V18.65h0.168V19.115z M42.468,19.734H42.3V19.27h0.168V19.734z
	 M42.468,20.354H42.3v-0.464h0.168V20.354z M42.468,20.973H42.3v-0.465h0.168V20.973z M42.468,21.592H42.3v-0.464h0.168V21.592z
	 M42.468,22.212H42.3v-0.465h0.168V22.212z M42.468,22.831H42.3v-0.464h0.168V22.831z M42.468,23.451H42.3v-0.465h0.168V23.451z
	 M42.468,24.07H42.3v-0.464h0.168V24.07z M42.468,24.689H42.3v-0.465h0.168V24.689z M42.468,25.167v-0.322H42.3v0.322H42.468z
	 M41.07,25.651v-0.155h0.505v0.155H41.07z"/>
<path fill="#1A1A1A" d="M54.167,31.364h-0.141v-0.14h0.141V31.364z M53.676,31.107l0.011,0.05h0.004l0.146-0.538h0.153l-0.267,0.86
	c-0.017,0.051-0.041,0.095-0.071,0.131s-0.074,0.054-0.13,0.054c-0.012,0-0.024-0.001-0.037-0.003
	c-0.014-0.002-0.027-0.005-0.04-0.009l0.016-0.104c0.005,0.001,0.012,0.002,0.021,0.003c0.009,0.001,0.016,0.001,0.021,0.001
	c0.027,0,0.049-0.012,0.065-0.035s0.028-0.05,0.038-0.082l0.025-0.078l-0.235-0.739h0.153L53.676,31.107z M53.293,31.364h-0.141
	v-1.073h0.141V31.364z M52.974,31.364h-0.141v-1.073h0.141V31.364z M52.365,31.271c0.038,0,0.072-0.012,0.101-0.035
	c0.029-0.024,0.049-0.053,0.058-0.086v-0.132h-0.116c-0.043,0-0.077,0.014-0.101,0.041s-0.037,0.06-0.037,0.099
	c0,0.035,0.008,0.062,0.025,0.083C52.312,31.261,52.335,31.271,52.365,31.271z M52.545,31.364c-0.006-0.023-0.011-0.042-0.014-0.06
	c-0.003-0.018-0.006-0.035-0.007-0.053c-0.02,0.037-0.045,0.067-0.078,0.091c-0.033,0.024-0.069,0.036-0.11,0.036
	c-0.067,0-0.118-0.02-0.153-0.059c-0.036-0.04-0.053-0.094-0.053-0.162c0-0.07,0.025-0.125,0.074-0.166
	c0.049-0.041,0.118-0.061,0.206-0.061h0.114v-0.077c0-0.045-0.01-0.081-0.03-0.106c-0.021-0.026-0.049-0.038-0.087-0.038
	c-0.034,0-0.061,0.011-0.081,0.033c-0.02,0.022-0.03,0.05-0.03,0.084l-0.134,0.001l-0.001-0.004
	c-0.003-0.058,0.02-0.108,0.067-0.153c0.048-0.044,0.11-0.066,0.187-0.066c0.074,0,0.134,0.022,0.18,0.065
	c0.045,0.043,0.069,0.105,0.069,0.186v0.345c0,0.029,0.001,0.056,0.005,0.083s0.01,0.053,0.017,0.08H52.545z M51.78,31.273
	c0.034,0,0.063-0.014,0.086-0.04c0.023-0.027,0.035-0.063,0.035-0.108h0.126l0.001,0.004c0.001,0.07-0.022,0.129-0.071,0.178
	c-0.049,0.048-0.108,0.072-0.177,0.072c-0.092,0-0.163-0.035-0.212-0.105c-0.05-0.07-0.075-0.159-0.075-0.268v-0.026
	c0-0.108,0.025-0.197,0.075-0.268c0.05-0.071,0.121-0.106,0.212-0.106c0.074,0,0.135,0.025,0.181,0.075
	c0.047,0.05,0.069,0.116,0.068,0.196l-0.001,0.003h-0.126c0-0.049-0.011-0.089-0.034-0.121c-0.022-0.031-0.051-0.046-0.087-0.046
	c-0.052,0-0.09,0.025-0.113,0.076c-0.023,0.05-0.035,0.114-0.035,0.19v0.026c0,0.078,0.011,0.142,0.034,0.192
	C51.689,31.248,51.727,31.273,51.78,31.273z M51.351,30.424H51.21v-0.133h0.141V30.424z M51.351,31.364H51.21V30.62h0.141V31.364z
	 M50.958,30.435v0.185h0.117v0.1h-0.117v0.443c0,0.039,0.006,0.066,0.018,0.083c0.012,0.016,0.027,0.024,0.047,0.024
	c0.008,0,0.015-0.001,0.022-0.002c0.007-0.001,0.015-0.003,0.024-0.006l0.015,0.097c-0.014,0.006-0.028,0.011-0.044,0.016
	c-0.017,0.004-0.033,0.005-0.051,0.006c-0.054,0-0.096-0.018-0.125-0.052c-0.03-0.035-0.045-0.089-0.045-0.164V30.72H50.72v-0.1
	h0.098v-0.185H50.958z M50.653,30.736l-0.061-0.003c-0.03,0-0.054,0.008-0.074,0.026c-0.019,0.018-0.034,0.043-0.045,0.075v0.531
	h-0.14V30.62h0.129l0.009,0.11c0.017-0.039,0.038-0.069,0.063-0.091c0.026-0.021,0.056-0.033,0.089-0.033
	c0.009,0,0.017,0.001,0.025,0.002c0.007,0.002,0.014,0.004,0.021,0.006L50.653,30.736z M49.948,30.713
	c-0.041,0-0.073,0.019-0.097,0.056c-0.023,0.037-0.039,0.087-0.044,0.148h0.263v-0.016c0-0.056-0.01-0.101-0.03-0.136
	C50.021,30.731,49.989,30.713,49.948,30.713z M49.96,31.379c-0.092,0-0.165-0.034-0.218-0.102c-0.052-0.068-0.079-0.156-0.079-0.265
	v-0.032c0-0.109,0.026-0.199,0.079-0.269c0.052-0.07,0.121-0.105,0.205-0.105c0.085,0,0.149,0.03,0.193,0.09
	s0.066,0.141,0.066,0.242v0.079h-0.404c0,0.076,0.014,0.137,0.041,0.185s0.069,0.071,0.125,0.071c0.039,0,0.073-0.006,0.102-0.019
	c0.029-0.012,0.056-0.03,0.08-0.053l0.045,0.087c-0.025,0.025-0.057,0.047-0.098,0.064C50.059,31.37,50.012,31.378,49.96,31.379z
	 M49.298,31.141l0.011,0.059h0.004l0.013-0.059l0.129-0.521h0.145l-0.227,0.745h-0.125l-0.228-0.745h0.146L49.298,31.141z
	 M48.495,31.001c0-0.084-0.012-0.153-0.037-0.207c-0.025-0.053-0.062-0.08-0.111-0.08c-0.031,0-0.057,0.009-0.079,0.026
	c-0.021,0.017-0.039,0.041-0.051,0.07v0.375c0.013,0.027,0.03,0.049,0.051,0.064c0.022,0.015,0.048,0.023,0.08,0.023
	c0.049,0,0.085-0.023,0.11-0.07s0.037-0.109,0.037-0.187V31.001z M48.635,31.016c0,0.11-0.022,0.198-0.066,0.264
	c-0.044,0.066-0.105,0.099-0.184,0.099c-0.036,0-0.069-0.008-0.097-0.022s-0.052-0.036-0.072-0.063v0.357h-0.141V30.62h0.119
	l0.013,0.089c0.02-0.033,0.045-0.059,0.074-0.076c0.029-0.018,0.063-0.027,0.103-0.027c0.079,0,0.14,0.036,0.184,0.108
	c0.043,0.072,0.066,0.167,0.066,0.287V31.016z M47.906,30.424h-0.14v-0.133h0.14V30.424z M47.906,31.364h-0.14V30.62h0.14V31.364z
	 M47.586,31.364h-0.141v-1.073h0.141V31.364z M47.065,31.364V30.72h-0.099v-0.1h0.099v-0.095c0-0.079,0.019-0.14,0.057-0.183
	c0.039-0.043,0.092-0.064,0.161-0.064c0.014,0,0.028,0.001,0.042,0.003c0.015,0.002,0.03,0.006,0.047,0.011l-0.013,0.103
	c-0.009-0.002-0.018-0.004-0.028-0.005c-0.009-0.001-0.02-0.002-0.032-0.002c-0.031,0-0.055,0.012-0.071,0.036
	c-0.017,0.023-0.024,0.058-0.024,0.103v0.095h0.123v0.1h-0.123v0.645H47.065z M46.068,30.589c0,0.023,0.005,0.047,0.016,0.072
	c0.01,0.025,0.025,0.052,0.046,0.082l0.071-0.055c0.023-0.018,0.04-0.038,0.048-0.058c0.009-0.02,0.013-0.042,0.013-0.066
	c0-0.03-0.008-0.055-0.025-0.076c-0.017-0.021-0.04-0.032-0.07-0.032c-0.031,0-0.054,0.013-0.072,0.039
	C46.077,30.52,46.068,30.551,46.068,30.589z M46.152,31.273c0.029,0,0.058-0.006,0.086-0.016c0.029-0.011,0.056-0.027,0.08-0.048
	l-0.222-0.295l-0.015,0.012c-0.033,0.033-0.055,0.063-0.066,0.092c-0.012,0.028-0.018,0.056-0.018,0.08
	c0,0.05,0.014,0.092,0.041,0.125C46.065,31.256,46.103,31.273,46.152,31.273z M45.856,31.101c0-0.056,0.015-0.105,0.043-0.147
	c0.029-0.042,0.072-0.086,0.129-0.131c-0.031-0.044-0.055-0.084-0.07-0.121c-0.015-0.037-0.022-0.073-0.022-0.111
	c0-0.078,0.021-0.137,0.062-0.179c0.041-0.042,0.098-0.063,0.169-0.063c0.065,0,0.117,0.021,0.157,0.062
	c0.04,0.041,0.06,0.091,0.06,0.15c0,0.045-0.01,0.083-0.028,0.116c-0.019,0.032-0.047,0.063-0.083,0.094l-0.077,0.062L46.4,31.1
	l0.004,0c0.015-0.027,0.026-0.057,0.034-0.091c0.008-0.034,0.012-0.07,0.012-0.109h0.118c0,0.061-0.007,0.116-0.022,0.167
	s-0.039,0.096-0.069,0.135l0.123,0.163h-0.164l-0.055-0.072c-0.035,0.028-0.071,0.05-0.11,0.064s-0.08,0.022-0.123,0.022
	c-0.089,0-0.16-0.026-0.213-0.077C45.882,31.251,45.856,31.184,45.856,31.101z M45.338,30.435v0.185h0.116v0.1h-0.116v0.443
	c0,0.039,0.006,0.066,0.018,0.083c0.012,0.016,0.027,0.024,0.047,0.024c0.007,0,0.015-0.001,0.021-0.002
	c0.007-0.001,0.015-0.003,0.024-0.006l0.014,0.097c-0.013,0.006-0.028,0.011-0.044,0.016c-0.017,0.004-0.033,0.005-0.051,0.006
	c-0.054,0-0.096-0.018-0.125-0.052s-0.044-0.089-0.044-0.164V30.72H45.1v-0.1h0.098v-0.185H45.338z M44.866,31.255
	c-0.021,0.04-0.046,0.07-0.077,0.091s-0.067,0.032-0.109,0.032c-0.068,0-0.122-0.026-0.16-0.079s-0.058-0.135-0.058-0.246V30.62
	h0.141v0.436c0,0.08,0.009,0.136,0.027,0.167c0.019,0.032,0.046,0.048,0.084,0.048c0.035,0,0.064-0.008,0.088-0.024
	c0.024-0.016,0.043-0.039,0.057-0.069V30.62h0.14v0.745h-0.119L44.866,31.255z M44.086,31.273c0.035,0,0.063-0.014,0.086-0.04
	c0.023-0.027,0.035-0.063,0.035-0.108h0.126l0.001,0.004c0.002,0.07-0.022,0.129-0.071,0.178c-0.049,0.048-0.108,0.072-0.178,0.072
	c-0.091,0-0.163-0.035-0.212-0.105c-0.05-0.07-0.075-0.159-0.075-0.268v-0.026c0-0.108,0.025-0.197,0.075-0.268
	c0.05-0.071,0.121-0.106,0.212-0.106c0.074,0,0.135,0.025,0.181,0.075c0.047,0.05,0.069,0.116,0.068,0.196l-0.001,0.003h-0.126
	c0-0.049-0.011-0.089-0.033-0.121c-0.022-0.031-0.052-0.046-0.088-0.046c-0.052,0-0.09,0.025-0.113,0.076
	c-0.023,0.05-0.034,0.114-0.034,0.19v0.026c0,0.078,0.011,0.142,0.034,0.192C43.996,31.248,44.033,31.273,44.086,31.273z"/>
</svg>
