<?xml version="1.0" encoding="utf-8"?>
<!-- Generator: Adobe Illustrator 16.0.3, SVG Export Plug-In . SVG Version: 6.00 Build 0)  -->
<!DOCTYPE svg PUBLIC "-//W3C//DTD SVG 1.1//EN" "http://www.w3.org/Graphics/SVG/1.1/DTD/svg11.dtd">
<svg version="1.1" id="Layer_1" xmlns="http://www.w3.org/2000/svg" xmlns:xlink="http://www.w3.org/1999/xlink" x="0px" y="0px"
	 width="152px" height="152px" viewBox="0 0 152 152" enable-background="new 0 0 152 152" xml:space="preserve">
<path fill="#FFCD2E" d="M113.776,27.464C103.854,17.541,90.144,11.403,75,11.403c-15.143,0-28.853,6.138-38.776,16.061
	c-9.923,9.923-16.062,23.633-16.062,38.776c0,10.517,2.959,20.341,8.09,28.682c5.311,8.636,12.939,15.686,22.013,20.278l1.634,0.827
	l-0.23,2.073l-6.581,20.904c3.171-1.183,6.533-2.396,9.964-3.635c33.817-12.202,74.786-26.987,74.786-69.13
	C129.838,51.097,123.699,37.387,113.776,27.464 M75,6.125c16.6,0,31.629,6.729,42.508,17.608
	c10.878,10.878,17.607,25.908,17.607,42.507c0,45.826-42.89,61.303-78.29,74.078c-5.099,1.84-10.037,3.621-14.926,5.543
	l-5.127,2.014l9.138-29.026c-9.087-5.034-16.73-12.348-22.152-21.164c-5.627-9.149-8.873-19.919-8.873-31.444
	c0-16.6,6.729-31.629,17.607-42.507C43.371,12.854,58.4,6.125,75,6.125z"/>
<path fill="#FFFFFF" d="M100.019,97.846V72.584h8.373v3.061h-4.995v7.67h4.433v3.061h-4.433v8.409h4.995v3.061H100.019z
	 M93.475,84.793V72.584h3.378v25.261h-3.378v-5.031L89.851,81.31v16.536h-3.377V72.584h3.377L93.475,84.793z M79.93,97.846V72.584
	h3.377v25.261H79.93z M77.994,97.846h-8.021V72.584h3.378v22.201h4.644V97.846z M63.429,84.793V72.584h3.378v25.261h-3.378v-5.031
	L59.805,81.31v16.536h-3.378V72.584h3.378L63.429,84.793z M46.999,94.785h1.724c0.891,0,1.336-0.493,1.336-1.478V77.123
	c0-0.985-0.504-1.478-1.513-1.478h-1.583c-0.985,0-1.478,0.492-1.478,1.478v16.185C45.486,94.292,45.99,94.785,46.999,94.785z
	 M104.435,55.046V41.713h3.688v27.589h-3.688v-5.495l-3.958-12.565v18.06h-3.689V41.713h3.689L104.435,55.046z M89.832,55.854V46.67
	c0-1.076-0.537-1.614-1.613-1.614H87.22c-1.076,0-1.614,0.538-1.614,1.614v9.184H89.832z M85.605,69.302h-3.688V46.439
	c0-3.151,1.473-4.726,4.419-4.726h2.767c2.945,0,4.419,1.575,4.419,4.726v22.863h-3.689V59.196h-4.227V69.302z M75.346,49.129
	v-2.421c0-1.101-0.538-1.652-1.614-1.652h-0.576c-1.05,0-1.576,0.551-1.576,1.652v4.573c0,0.512,0.103,0.858,0.308,1.038
	c0.205,0.179,0.538,0.41,0.999,0.691l3.497,1.883c0.769,0.436,1.313,0.775,1.633,1.019c0.32,0.243,0.57,0.538,0.749,0.884
	c0.18,0.346,0.27,1.005,0.27,1.979v5.879c0,3.1-1.486,4.649-4.458,4.649h-2.267c-2.946,0-4.419-1.691-4.419-5.072v-1.383h3.689
	v1.499c0,1.076,0.551,1.614,1.652,1.614h0.653c0.973,0,1.46-0.538,1.46-1.614v-4.688c0-0.512-0.103-0.858-0.308-1.037
	c-0.205-0.179-0.538-0.41-0.999-0.692l-3.497-1.959c-0.768-0.41-1.326-0.756-1.671-1.038s-0.596-0.647-0.749-1.095
	c-0.154-0.448-0.231-1.031-0.231-1.749v-5.648c0-3.151,1.473-4.726,4.419-4.726h2.305c2.946,0,4.419,1.575,4.419,4.726v2.69H75.346z
	 M56.479,69.302V41.713h9.146v3.343h-5.457v8.377h4.841v3.343h-4.841v9.184h5.457v3.343H56.479z M46.066,55.969h2.344
	c0.974,0,1.46-0.538,1.46-1.614V46.67c0-1.076-0.551-1.614-1.652-1.614h-2.152V55.969z M42.377,41.713h6.725
	c2.972,0,4.457,1.575,4.457,4.726v8.185c0,3.125-1.473,4.688-4.419,4.688h-3.074v9.991h-3.689V41.713z M46.189,97.846
	c-2.721,0-4.081-1.431-4.081-4.292V76.912c0-2.885,1.349-4.328,4.046-4.328h3.237c2.697,0,4.046,1.442,4.046,4.328v16.642
	c0,2.861-1.361,4.292-4.082,4.292H46.189z"/>
</svg>
