<?xml version="1.0" encoding="utf-8"?>
<!-- Generator: Adobe Illustrator 16.0.3, SVG Export Plug-In . SVG Version: 6.00 Build 0)  -->
<!DOCTYPE svg PUBLIC "-//W3C//DTD SVG 1.1//EN" "http://www.w3.org/Graphics/SVG/1.1/DTD/svg11.dtd">
<svg version="1.1" id="Layer_1" xmlns="http://www.w3.org/2000/svg" xmlns:xlink="http://www.w3.org/1999/xlink" x="0px" y="0px"
	 width="170.71px" height="170.709px" viewBox="0 0 170.71 170.709" enable-background="new 0 0 170.71 170.709"
	 xml:space="preserve">
<path fill="#FFFFFF" d="M109.595,50.694v21.305h-3.241V50.694h-3.106v-2.937h9.454v2.937H109.595z M94.908,59.439h2.127
	c0.968,0,1.452-0.585,1.452-1.755V52.45c0-1.17-0.484-1.756-1.452-1.756h-2.127V59.439z M91.667,47.757h6.348
	c2.476,0,3.714,1.384,3.714,4.153v5.976c0,2.116-0.642,3.455-1.925,4.018l2.262,10.095h-3.072l-2.127-9.791h-1.958v9.791h-3.241
	V47.757z M85.556,60.182v-8.069c0-0.945-0.473-1.418-1.418-1.418H83.26c-0.945,0-1.417,0.473-1.417,1.418v8.069H85.556z
	 M81.842,71.999h-3.242V51.91c0-2.769,1.294-4.153,3.883-4.153h2.431c2.589,0,3.883,1.384,3.883,4.153v20.089h-3.241V63.12h-3.713
	V71.999z M73.807,50.694v21.305h-3.241V50.694h-3.106v-2.937h9.454v2.937H73.807z M62.699,54.273v-2.127
	c0-0.968-0.473-1.452-1.418-1.452h-0.506c-0.923,0-1.384,0.484-1.384,1.452v4.018c0,0.45,0.09,0.754,0.27,0.912
	c0.18,0.157,0.473,0.36,0.878,0.607l3.072,1.654c0.675,0.383,1.154,0.681,1.435,0.895c0.281,0.214,0.501,0.473,0.658,0.777
	c0.158,0.304,0.236,0.883,0.236,1.739v5.166c0,2.724-1.305,4.085-3.917,4.085h-1.992c-2.588,0-3.883-1.486-3.883-4.457v-1.216h3.241
	v1.317c0,0.945,0.484,1.418,1.452,1.418h0.574c0.855,0,1.283-0.473,1.283-1.418v-4.119c0-0.45-0.09-0.754-0.27-0.912
	c-0.181-0.158-0.473-0.36-0.878-0.607l-3.073-1.722c-0.675-0.36-1.165-0.664-1.469-0.912c-0.304-0.247-0.523-0.568-0.658-0.962
	c-0.135-0.394-0.203-0.906-0.203-1.536V51.91c0-2.769,1.294-4.153,3.883-4.153h2.026c2.588,0,3.882,1.384,3.882,4.153v2.363H62.699z
	"/>
<path fill="#999999" d="M83.25,84.321c-1.442,0-2.164,0.797-2.164,2.391v26.19c0,1.595,0.816,2.392,2.448,2.392h1.366
	c1.442,0,2.164-0.797,2.164-2.392v-26.19c0-1.594-0.815-2.391-2.448-2.391H83.25z M82.168,120.248c-4.365,0-6.547-2.334-6.547-7.003
	V86.371c0-4.668,2.183-7.003,6.547-7.003h3.814c4.365,0,6.548,2.334,6.548,7.003v26.874c0,4.669-2.183,7.003-6.548,7.003H82.168z
	 M56.319,110.682h5.466v2.221c0,1.595,0.721,2.392,2.164,2.392h0.626c1.632,0,2.448-0.797,2.448-2.392v-9.338
	c0-1.783-0.759-2.676-2.277-2.676H56.49V79.368h15.43v5.067H61.614v11.501h4.327c4.365,0,6.547,2.41,6.547,7.23v9.85
	c0,4.821-2.182,7.231-6.547,7.231h-3.074c-4.365,0-6.548-2.315-6.548-6.946V110.682z"/>
<path fill="#999999" d="M120.737,152.521l-18.929-52.258v-0.342l5.693-20.554h5.011l-5.751,20.326l19.349,52.827H120.737z
	 M101.523,120.248h-5.466v-40.88h5.466V120.248z"/>
<path fill-rule="evenodd" clip-rule="evenodd" fill="#999999" d="M84.785,18.188c37.094,0.199,67.005,30.432,66.807,67.526
	c-0.106,19.702-8.685,37.378-22.263,49.592l-1.946-5.403c11.591-11.18,18.839-26.841,18.932-44.217
	c0.183-34.181-27.377-62.038-61.559-62.221c-34.181-0.183-62.038,27.377-62.221,61.558s27.377,62.038,61.558,62.222
	c8.106,0.043,15.856-1.476,22.966-4.271l1.771,4.976c-7.673,2.994-16.028,4.619-24.766,4.572
	c-37.095-0.198-67.005-30.432-66.807-67.526C17.457,47.9,47.69,17.99,84.785,18.188"/>
</svg>
