<?xml version="1.0" encoding="utf-8"?>
<!-- Generator: Adobe Illustrator 16.0.3, SVG Export Plug-In . SVG Version: 6.00 Build 0)  -->
<!DOCTYPE svg PUBLIC "-//W3C//DTD SVG 1.1//EN" "http://www.w3.org/Graphics/SVG/1.1/DTD/svg11.dtd">
<svg version="1.1" id="Layer_1" xmlns="http://www.w3.org/2000/svg" xmlns:xlink="http://www.w3.org/1999/xlink" x="0px" y="0px"
	 width="15.452px" height="15.58px" viewBox="0 0 15.452 15.58" enable-background="new 0 0 15.452 15.58" xml:space="preserve">
<path fill-rule="evenodd" clip-rule="evenodd" fill="#FFFFFF" d="M6.726,2C3.012,2,0,5.011,0,8.726c0,1.255,0.344,2.429,0.943,3.435
	L0.095,15.58l3.371-0.971c0.966,0.536,2.077,0.844,3.26,0.844c3.714,0,6.726-3.012,6.726-6.727C13.452,5.011,10.44,2,6.726,2
	 M5.025,8.193c0.079-0.089,0.156-0.179,0.234-0.269c0.131-0.152,0.327-0.299,0.337-0.517c0.01-0.21-0.064-0.42-0.139-0.61
	C5.409,6.674,5.36,6.552,5.313,6.429C5.228,6.205,5.119,5.892,4.995,5.761C4.828,5.583,4.542,5.546,4.314,5.655
	c0,0-1.32,0.634-0.913,1.904c0,0,0.787,3.579,4.746,4.314c0,0,1.421,0.204,1.802-0.66c0.082-0.186,0.138-0.447,0.125-0.65
	c-0.014-0.196-0.152-0.326-0.314-0.42c-0.209-0.119-0.395-0.231-0.632-0.349C8.922,9.692,8.685,9.542,8.447,9.607
	c-0.175,0.048-0.3,0.207-0.417,0.334c-0.154,0.163-0.312,0.323-0.467,0.485C7.563,10.426,5.559,9.69,5.025,8.193z M6.802,14.335
	c-1.175,0-2.265-0.364-3.164-0.983L1.72,13.905l0.49-1.978c-0.625-0.902-0.992-1.996-0.992-3.176c0-3.084,2.5-5.584,5.584-5.584
	c3.084,0,5.584,2.5,5.584,5.584C12.387,11.835,9.887,14.335,6.802,14.335z"/>
</svg>
